<?xml version="1.0" standalone="no"?>
<!DOCTYPE svg PUBLIC "-//W3C//DTD SVG 20010904//EN"
 "http://www.w3.org/TR/2001/REC-SVG-20010904/DTD/svg10.dtd">
<svg version="1.0" xmlns="http://www.w3.org/2000/svg"
 width="1031.000000pt" height="1031.000000pt" viewBox="0 0 1031.000000 1031.000000"
 preserveAspectRatio="xMidYMid meet">
<metadata>
Created by potrace 1.14, written by Peter Selinger 2001-2017
</metadata>
<g transform="translate(0.000000,1031.000000) scale(0.100000,-0.100000)"
fill="#000000" stroke="none">
<path d="M5605 9912 c-22 -2 -45 -8 -52 -14 -9 -7 -21 -7 -41 1 -21 9 -45 8
-105 -3 -43 -9 -91 -13 -106 -10 -15 3 -45 -1 -66 -10 -26 -11 -42 -13 -49 -6
-15 15 -77 12 -106 -5 -15 -9 -54 -14 -97 -15 -46 0 -75 -4 -80 -12 -4 -7 -26
-13 -48 -14 -22 0 -60 -6 -85 -12 -25 -6 -85 -20 -135 -30 -49 -11 -120 -31
-157 -46 -37 -15 -72 -24 -78 -21 -6 3 -25 -4 -43 -17 -17 -13 -34 -23 -37
-24 -3 0 -16 -5 -30 -11 -14 -6 -40 -17 -57 -23 -18 -7 -33 -16 -33 -20 0 -17
-58 -68 -100 -88 -25 -12 -52 -26 -60 -32 -21 -14 -93 -44 -102 -42 -4 1 -14
-13 -22 -31 -22 -49 -45 -73 -118 -119 -37 -24 -80 -62 -97 -85 -17 -24 -38
-43 -47 -43 -11 0 -15 -6 -11 -19 5 -22 -48 -141 -63 -141 -6 0 -10 -12 -10
-26 0 -15 -15 -43 -35 -67 -33 -38 -40 -58 -35 -101 1 -10 -3 -15 -9 -12 -13
8 -71 -52 -71 -73 0 -6 -16 -46 -35 -90 -19 -43 -35 -85 -35 -93 0 -7 -7 -26
-16 -43 -9 -16 -32 -74 -50 -128 -19 -54 -41 -105 -49 -113 -8 -9 -15 -28 -15
-44 0 -16 -5 -41 -11 -57 -6 -15 -12 -62 -15 -103 -2 -41 -9 -123 -15 -182 -6
-59 -8 -111 -5 -116 3 -5 6 -87 7 -181 l1 -171 97 0 c250 0 505 -61 634 -152
53 -38 18 -30 -80 17 -54 26 -116 54 -138 62 -98 34 -398 53 -578 36 -55 -5
-65 -8 -56 -19 9 -11 7 -14 -11 -14 -16 0 -20 4 -16 15 4 11 -1 15 -17 15 -23
0 -62 -20 -39 -20 19 0 14 -28 -7 -35 -11 -3 -22 -12 -25 -20 -3 -8 -15 -15
-26 -15 -33 0 -27 48 8 61 35 15 14 23 -30 11 -50 -13 -52 -72 -4 -129 20 -24
27 -48 35 -128 12 -107 44 -244 66 -284 19 -35 18 -30 -6 75 -54 230 -59 283
-29 291 12 3 19 12 18 22 -2 11 4 16 20 15 16 0 32 13 58 53 40 61 66 77 149
92 184 34 461 -15 607 -108 69 -44 120 -127 139 -225 9 -50 2 -186 -10 -186
-3 0 -6 42 -7 93 -1 135 -14 171 -88 242 -57 55 -72 63 -172 97 -121 41 -216
58 -326 58 -117 0 -146 -8 -150 -39 -2 -20 -7 -25 -23 -22 -56 13 -89 6 -104
-21 -19 -33 -9 -45 24 -30 15 7 25 20 25 33 0 16 4 19 18 14 9 -4 24 -9 33
-12 14 -4 43 -62 35 -71 -3 -2 -13 1 -24 7 -12 6 -31 11 -44 11 -14 0 -1 -10
37 -25 33 -14 61 -25 63 -25 1 0 2 9 2 20 0 19 1 19 18 3 13 -13 16 -23 9 -34
-12 -19 0 -109 14 -109 5 0 7 -11 3 -25 -6 -26 -2 -28 41 -26 11 0 14 -2 8 -5
-24 -11 -14 -43 15 -50 36 -9 66 -35 51 -45 -19 -11 -2 -26 49 -45 26 -9 56
-25 67 -34 11 -10 43 -23 72 -30 54 -12 189 -10 211 4 6 4 16 5 21 2 5 -3 24
0 42 8 66 27 77 28 81 9 2 -13 12 -3 32 32 47 79 156 244 167 250 17 11 9 25
-13 25 -13 0 -29 4 -36 9 -37 23 80 29 133 7 40 -17 50 -44 37 -103 -19 -84
-2 -158 71 -304 37 -74 67 -139 67 -145 0 -15 -50 -64 -65 -64 -8 0 -15 -9
-15 -20 0 -17 5 -19 24 -14 78 19 228 -80 242 -159 6 -34 3 -41 -31 -72 -20
-19 -40 -33 -43 -31 -4 2 -41 -1 -82 -8 -41 -6 -93 -8 -115 -5 -25 4 -45 3
-54 -5 -12 -8 -13 -8 -7 2 6 9 -3 11 -36 8 -59 -5 -98 -16 -98 -28 0 -5 -12
-8 -27 -6 -20 2 -34 -4 -46 -19 -21 -26 -47 -30 -47 -8 0 8 -4 15 -10 15 -5 0
-10 7 -10 15 0 8 -4 15 -10 15 -5 0 -10 7 -10 15 0 10 -10 15 -27 15 -16 0
-34 4 -42 9 -10 7 -23 3 -39 -10 -14 -10 -31 -19 -39 -19 -11 0 -11 -6 2 -31
23 -43 12 -47 -15 -7 -13 18 -40 49 -62 69 -33 32 -38 42 -38 82 0 35 8 57 39
104 22 32 49 67 60 78 21 18 30 52 11 40 -18 -11 -10 11 10 30 11 10 20 22 20
27 0 21 -39 4 -103 -44 -63 -49 -67 -53 -43 -56 15 -2 39 6 57 18 16 12 33 19
37 15 9 -9 -45 -55 -65 -55 -9 0 -21 -7 -27 -15 -18 -24 -184 -31 -276 -11
-93 20 -119 20 -62 0 24 -8 87 -21 140 -27 l97 -13 -46 -27 c-25 -15 -66 -30
-90 -33 -41 -5 -92 -34 -61 -34 7 0 10 -4 7 -10 -3 -5 -24 -9 -46 -8 -21 1
-42 -1 -45 -5 -3 -3 -17 -2 -30 3 -15 6 -24 6 -24 0 0 -11 -28 -9 -47 3 -17
11 -36 -26 -21 -41 9 -9 6 -12 -11 -12 -18 0 -22 4 -18 19 3 13 0 18 -7 15 -8
-3 -11 -17 -8 -34 3 -22 0 -30 -10 -30 -25 0 -52 -39 -54 -79 -1 -21 -4 -43
-8 -49 -3 -6 -3 -17 0 -26 3 -8 -1 -25 -10 -38 -9 -12 -16 -18 -17 -13 0 6 -5
-3 -10 -20 -13 -44 4 -150 23 -139 7 5 8 3 2 -7 -13 -21 -5 -50 19 -71 15 -12
17 -17 7 -16 -16 3 -18 -16 -5 -69 4 -18 12 -33 17 -33 6 0 8 -6 5 -14 -5 -13
26 -142 42 -174 5 -9 19 -51 32 -92 12 -41 33 -90 46 -109 13 -18 23 -40 23
-48 0 -8 11 -35 25 -61 15 -28 24 -61 24 -82 -2 -31 -2 -32 -6 -7 -4 22 -8 27
-24 22 -15 -5 -18 -3 -12 12 3 10 2 15 -2 10 -11 -10 -7 -79 6 -114 6 -17 6
-30 -1 -38 -8 -9 -5 -14 10 -18 18 -5 20 -13 20 -99 -1 -51 2 -106 5 -123 3
-16 8 -47 11 -67 4 -27 12 -38 26 -40 12 -2 28 -13 36 -26 12 -19 13 -23 1
-20 -10 2 -15 -9 -17 -39 -3 -34 0 -43 13 -43 9 0 14 4 10 9 -3 5 -1 12 5 16
12 8 10 -45 -3 -62 -7 -10 -3 -13 12 -13 37 0 71 -29 71 -61 0 -17 6 -32 15
-35 10 -4 13 -16 9 -37 -4 -28 -3 -29 5 -10 13 28 28 29 36 4 3 -10 16 -22 29
-25 13 -3 26 -15 29 -27 4 -16 11 -19 26 -14 12 3 21 2 21 -3 0 -5 10 -12 21
-15 14 -4 20 -11 16 -21 -3 -8 -2 -27 3 -43 l8 -28 1 28 c1 29 18 37 28 11 3
-9 8 -12 12 -5 4 6 12 7 21 1 13 -8 12 -12 -5 -24 -11 -9 -26 -16 -33 -16 -8
0 -26 -9 -40 -19 -15 -10 -72 -29 -127 -40 -200 -44 -210 -49 -364 -174 -77
-63 -145 -97 -194 -97 -51 0 -193 -37 -246 -65 -27 -13 -59 -37 -71 -52 -30
-39 -106 -91 -143 -98 -40 -8 -87 -28 -87 -36 0 -4 -11 -10 -25 -13 -14 -4
-35 -16 -46 -27 -25 -25 -35 -19 -20 10 10 17 9 20 -4 15 -8 -4 -15 -10 -15
-15 0 -5 -5 -9 -11 -9 -5 0 -8 4 -5 9 5 8 -19 3 -123 -22 -24 -6 -71 -29 -105
-52 -33 -23 -90 -56 -126 -74 -35 -18 -69 -36 -75 -40 -5 -5 -23 -11 -40 -15
-43 -11 -125 -47 -125 -56 0 -11 52 1 78 18 21 13 22 13 16 -4 -5 -18 -4 -17
11 1 9 11 22 18 28 17 7 -2 9 0 4 4 -4 4 7 13 25 19 18 7 41 16 51 20 10 4 17
4 16 -1 -1 -5 -1 -15 0 -23 1 -11 4 -10 14 4 8 10 19 15 26 10 14 -8 -17 -27
-65 -39 -43 -11 -151 -54 -215 -86 -55 -27 -126 -44 -179 -42 -29 1 -62 -27
-96 -80 -28 -45 -100 -117 -209 -213 -175 -154 -358 -371 -484 -575 -79 -128
-221 -391 -330 -610 -177 -355 -245 -542 -356 -967 l-45 -173 0 -260 0 -261
808 6 c444 3 870 6 947 6 77 1 448 -2 825 -4 636 -5 770 0 450 18 -72 4 -133
12 -136 17 -9 14 17 101 34 115 10 9 37 11 86 7 39 -3 104 -2 144 3 39 5 72 6
72 1 0 -4 -10 -8 -22 -8 -46 0 -7 -11 71 -20 59 -7 90 -16 114 -33 78 -57 216
-107 294 -107 44 0 53 3 53 18 0 10 9 35 20 57 11 22 20 45 20 51 0 18 87 36
175 37 l40 0 2 -49 c1 -27 -2 -64 -7 -82 l-8 -32 364 0 c310 0 364 2 364 14 0
16 -30 21 -160 30 -61 4 -78 9 -92 27 -23 28 -23 39 1 39 11 0 23 5 26 10 4 6
55 10 127 9 75 0 124 3 131 10 15 15 36 100 26 106 -4 3 -65 10 -136 15 -70 5
-148 12 -173 15 -25 3 -150 7 -278 10 -246 6 -340 14 -435 40 -78 20 -107 37
-150 84 -65 73 -71 155 -18 267 48 100 137 169 245 189 32 6 36 5 36 -14 0
-11 8 -25 19 -30 15 -9 26 -4 57 26 22 20 38 39 38 42 -1 3 10 11 24 16 42 18
178 -2 237 -33 80 -43 145 -147 145 -231 0 -33 22 -61 48 -61 40 -1 160 -13
193 -20 20 -4 59 -5 87 -2 57 5 60 9 64 85 1 27 6 51 11 54 6 3 7 1 3 -5 -5
-9 6 -12 36 -11 36 1 39 2 18 9 -26 8 -19 13 15 11 14 -1 24 8 32 29 11 28 10
30 -12 30 -13 0 -27 -4 -30 -10 -11 -17 -50 -11 -69 12 -22 26 -49 120 -36
128 4 3 48 2 97 -1 101 -7 113 -4 113 23 0 14 -5 18 -17 14 -10 -3 -25 -1 -33
4 -11 7 -8 10 16 10 35 0 64 24 41 33 -8 3 -77 11 -153 17 l-139 12 -47 46
c-27 26 -48 52 -48 59 0 19 197 17 333 -3 60 -9 111 -14 113 -11 3 2 7 17 10
33 8 42 25 49 110 44 18 -1 34 3 38 8 3 5 28 6 56 2 36 -5 54 -3 61 6 12 14
96 9 113 -7 6 -5 -9 -70 -37 -161 -26 -84 -64 -211 -86 -283 -21 -71 -49 -179
-61 -240 -11 -60 -30 -137 -40 -170 -11 -33 -28 -103 -39 -155 -11 -52 -24
-108 -30 -123 -17 -44 -14 -47 38 -47 43 0 51 3 56 23 4 12 14 41 22 65 l16
42 116 0 c80 0 121 -4 130 -13 17 -17 385 -17 403 1 6 6 23 12 38 12 22 0 86
31 100 49 3 4 17 12 33 18 15 7 27 17 27 23 0 10 56 98 81 128 33 39 40 187
12 249 -30 66 -70 117 -104 135 -86 45 -331 108 -419 109 -182 1 -211 -1 -205
-11 3 -6 10 -8 15 -5 5 3 11 1 14 -4 4 -5 2 -12 -3 -15 -5 -4 -13 -2 -16 4 -5
8 -11 7 -21 -1 -24 -19 -8 77 32 199 19 57 34 112 34 122 0 24 23 30 80 21 39
-6 45 -10 43 -29 -3 -20 2 -22 46 -22 44 0 50 3 53 23 3 20 8 22 48 19 70 -5
82 -10 70 -32 -9 -16 -4 -20 41 -29 46 -10 52 -9 67 9 15 17 24 19 67 12 55
-8 73 -34 39 -59 -16 -12 -16 -13 10 -13 15 0 44 -8 64 -18 l37 -18 1 27 c2
49 11 59 54 59 68 0 79 -11 68 -67 -6 -27 -13 -52 -17 -56 -4 -4 12 -28 37
-53 25 -24 46 -43 47 -42 1 2 9 39 19 83 10 44 24 85 31 90 6 6 35 8 64 7 48
-4 51 -6 51 -31 0 -15 -16 -81 -36 -146 -21 -68 -36 -137 -35 -160 5 -107 4
-244 -2 -276 l-7 -37 -65 6 c-44 3 -70 1 -80 -8 -18 -15 -20 -32 -2 -29 12 2
36 -5 74 -23 12 -6 29 -8 37 -5 12 5 16 0 16 -21 -1 -59 -50 -144 -143 -248
-21 -24 -36 -48 -32 -54 4 -7 634 -10 2031 -10 l2024 0 0 1167 0 1167 -57 53
c-35 33 -50 53 -40 53 9 0 24 -11 32 -24 9 -14 28 -32 43 -42 25 -16 25 -15
-7 24 -18 23 -36 44 -41 47 -5 3 -16 29 -24 58 -17 60 -124 195 -181 228 -27
16 -34 28 -40 66 -5 33 -17 56 -43 85 -31 32 -45 40 -89 45 -29 3 -53 9 -53
14 0 4 -39 26 -86 48 -51 25 -109 62 -144 93 -32 29 -83 66 -113 81 -33 16
-79 53 -112 89 -55 59 -139 131 -183 156 -12 6 -48 12 -79 13 -32 0 -76 4 -98
8 l-40 8 40 7 c22 4 45 9 50 10 15 4 -168 62 -253 81 -40 8 -101 26 -135 40
-34 13 -68 26 -76 27 -8 2 -44 20 -80 40 -36 20 -86 47 -111 59 -25 12 -53 26
-62 30 -10 5 -27 9 -38 9 -12 0 -19 4 -16 9 3 5 -16 14 -42 21 -26 7 -51 17
-56 21 -6 5 -18 9 -27 9 -10 0 -19 3 -21 8 -3 7 -357 187 -403 204 -14 5 -10
0 10 -18 l30 -26 -43 25 c-24 13 -43 28 -42 32 2 13 -80 55 -95 49 -8 -4 -17
0 -20 8 -3 8 -31 32 -61 54 -31 21 -76 56 -100 76 -24 20 -59 40 -78 43 -21 5
-48 22 -73 48 -144 152 -120 138 -257 153 -51 5 -64 11 -90 40 -19 22 -48 40
-80 49 -51 15 -96 20 -96 9 0 -22 73 -89 161 -149 159 -107 176 -122 194 -173
15 -45 14 -48 -10 -97 -13 -27 -36 -62 -50 -77 -14 -15 -25 -30 -25 -33 0 -4
-41 -60 -91 -126 -82 -107 -264 -297 -429 -445 -296 -266 -784 -610 -838 -589
-7 3 -11 1 -8 -3 9 -15 -191 -91 -330 -126 -71 -18 -74 -19 -74 -8 0 4 14 13
30 20 17 8 30 21 30 29 0 9 6 13 14 10 17 -7 32 9 38 38 2 13 14 22 33 25 33
6 37 25 5 25 -10 0 -22 4 -26 8 -4 4 -2 7 5 7 7 0 11 6 8 14 -4 10 3 17 23 21
34 7 82 43 75 55 -3 4 4 6 15 3 11 -3 20 -7 20 -9 0 -9 -73 -74 -83 -74 -8 0
-7 -4 1 -12 9 -9 17 -9 36 2 14 7 23 16 21 20 -2 4 7 12 21 19 18 8 24 16 19
30 -4 13 0 20 16 24 13 4 18 10 13 18 -4 8 -3 10 5 5 6 -4 9 -11 6 -16 -3 -4
1 -11 7 -13 7 -3 0 -6 -17 -7 -28 -1 -29 -1 -11 -15 17 -13 18 -18 6 -40 -15
-28 -9 -41 16 -31 12 5 14 10 5 19 -8 10 -7 17 1 25 19 19 40 15 33 -7 -3 -11
-1 -22 5 -26 7 -4 14 2 17 14 6 23 23 29 23 7 0 -10 8 -12 33 -7 27 6 32 12
30 33 -1 23 2 25 33 23 21 -1 44 5 57 16 13 9 34 19 47 21 21 2 25 8 24 38 0
25 4 37 18 42 13 5 17 16 15 40 -4 34 7 66 28 83 15 12 26 55 15 55 -4 0 -13
-7 -20 -15 -7 -8 -19 -15 -27 -15 -8 0 -22 -8 -31 -17 -16 -16 -17 -15 -20 5
-2 14 -8 20 -15 15 -8 -4 -7 -1 1 9 10 13 10 17 0 20 -10 4 -10 8 -1 20 10 11
10 17 0 28 -9 10 -9 11 1 5 11 -6 11 -3 1 13 -10 16 -17 18 -26 10 -7 -5 -10
-15 -6 -21 3 -6 1 -7 -5 -3 -7 4 -12 11 -12 16 0 13 41 50 67 60 29 12 51 50
28 50 -17 0 -20 16 -5 25 6 4 8 11 5 16 -3 5 3 19 14 30 19 21 19 23 3 35 -16
12 -16 14 4 31 14 12 19 24 14 37 -4 14 -9 16 -14 8 -9 -15 -46 -16 -46 -2 0
6 13 19 30 28 16 9 31 26 34 38 3 11 17 26 31 32 41 19 31 37 -17 33 -10 -1
-18 2 -18 7 0 13 48 52 65 52 8 0 15 5 15 10 0 6 -4 10 -10 10 -5 0 -10 5 -10
10 0 6 7 10 15 10 8 0 14 6 12 13 -1 7 7 11 23 9 l25 -3 -28 22 c-15 11 -25
25 -22 29 5 9 -13 25 -29 25 -5 0 -10 9 -12 19 -1 10 -8 23 -16 27 -9 6 -8 9
5 15 9 3 17 13 17 21 0 8 5 11 10 8 6 -4 18 -1 27 7 15 12 16 10 10 -19 -5
-26 -3 -33 9 -33 11 0 13 6 9 20 -6 19 7 26 38 21 14 -2 47 19 47 30 0 7 -14
10 -36 7 -33 -4 -35 -2 -29 19 4 17 1 23 -12 23 -12 1 -4 9 20 24 21 13 33 26
26 28 -18 6 8 48 74 119 17 19 31 43 32 54 1 13 8 19 19 17 9 -2 19 4 22 12 3
9 10 13 16 10 11 -7 68 44 68 60 0 5 -7 18 -16 28 -13 14 -14 21 -5 32 13 15
6 40 -8 32 -4 -3 -8 1 -8 8 0 8 6 12 12 9 9 -3 11 4 8 22 -5 26 -23 45 -23 25
0 -7 -6 -5 -15 4 -19 19 -19 27 1 19 21 -8 35 16 23 39 -7 14 -5 28 7 51 25
48 26 77 3 77 -25 0 -25 16 0 23 29 7 56 66 42 89 -16 25 -15 46 1 30 18 -18
23 -15 24 13 2 21 -2 25 -16 20 -10 -3 -21 -1 -25 5 -4 7 2 14 15 17 12 3 19
11 16 19 -3 7 3 14 12 16 9 2 17 10 17 18 1 29 26 100 35 100 6 0 10 -5 10
-11 0 -6 12 3 26 20 16 20 24 39 21 51 -3 11 1 23 9 28 26 15 53 228 29 234
-5 2 -14 -17 -20 -42 -7 -29 -17 -46 -28 -48 -20 -4 -23 -18 -5 -24 9 -3 8
-13 -4 -38 -9 -18 -14 -44 -12 -56 2 -13 -4 -40 -15 -59 l-19 -36 -26 28 c-14
15 -26 23 -26 17 0 -5 5 -15 10 -20 8 -8 6 -15 -5 -24 -12 -10 -15 -10 -15 4
0 9 -5 25 -12 35 -9 15 -8 22 6 36 9 10 15 24 12 32 -3 8 -6 17 -6 19 0 2 -4
4 -10 4 -5 0 -10 -9 -10 -20 0 -22 -25 -27 -50 -9 -13 8 -12 12 8 26 12 8 22
19 22 24 0 16 -38 10 -44 -7 -4 -11 -12 -14 -24 -9 -9 4 -24 7 -32 8 -8 0 -20
3 -25 8 -6 4 -18 1 -28 -6 -17 -12 -17 -14 -1 -29 22 -23 13 -30 -20 -15 -25
12 -30 20 -27 47 3 22 -14 13 -47 -23 -17 -20 -29 -42 -26 -50 7 -18 -22 -50
-31 -35 -3 5 -3 15 1 21 8 14 -38 -10 -47 -24 -4 -5 -10 0 -14 12 -5 17 -13
21 -32 19 -16 -2 -28 3 -31 11 -3 10 1 12 17 8 17 -4 24 0 30 16 10 26 4 40
-12 31 -7 -3 -1 3 12 14 23 18 23 20 6 45 -9 15 -21 27 -26 27 -5 0 -9 4 -9
10 0 5 7 7 16 3 12 -4 15 -1 12 13 -4 24 -78 32 -78 9 0 -8 9 -15 20 -15 11 0
20 -5 20 -10 0 -6 -12 -9 -27 -8 -16 1 -38 -4 -50 -10 -19 -10 -24 -9 -32 7
-6 10 -8 21 -5 24 3 3 -4 3 -16 0 -18 -5 -21 -2 -18 13 2 11 11 18 21 16 25
-4 21 12 -7 34 -23 16 -27 42 -5 29 5 -4 9 -1 9 5 0 6 4 9 9 5 5 -3 12 -1 15
4 3 5 -9 12 -27 15 -30 6 -33 10 -33 39 1 26 5 31 20 29 14 -3 18 1 13 17 -3
12 1 22 10 25 8 3 11 11 7 17 -4 7 -3 9 4 5 6 -3 13 -2 17 4 4 6 17 4 36 -5
23 -12 29 -13 29 -2 0 7 -5 18 -11 24 -7 7 -3 9 17 5 31 -6 26 12 -5 21 -12 3
-22 -1 -26 -12 -6 -14 -7 -14 -15 -1 -4 8 -7 18 -7 21 1 3 -4 13 -11 22 -12
13 -10 19 7 33 11 10 17 22 14 27 -3 5 -14 -1 -24 -14 l-19 -24 0 27 c0 14 -3
33 -6 42 -4 12 0 16 16 16 18 0 21 4 16 23 -3 12 -6 30 -6 40 0 9 -5 17 -11
17 -7 0 -9 -10 -7 -24 4 -19 1 -22 -14 -18 -17 4 -20 12 -22 57 -1 14 -8 20
-26 20 -29 0 -40 11 -40 43 0 19 -4 22 -20 17 -16 -5 -20 -2 -20 14 0 11 -12
28 -27 38 -16 10 -34 26 -41 35 -7 10 -24 18 -37 18 -13 0 -27 5 -30 11 -4 6
-19 7 -37 4 -28 -7 -29 -5 -23 15 6 19 4 22 -9 17 -10 -4 -19 -1 -22 8 -4 8
-10 15 -16 15 -5 0 -6 -4 -3 -10 8 -13 -1 -13 -26 1 -19 10 -18 29 2 29 6 0 7
-5 3 -11 -4 -7 -1 -10 6 -7 21 7 23 25 3 32 -12 5 -23 0 -34 -16 -15 -20 -19
-21 -24 -7 -4 10 -16 16 -29 15 -17 -1 -21 -6 -18 -23 7 -35 -15 -27 -34 12
-9 19 -21 35 -28 35 -6 0 -4 5 4 10 12 7 13 13 4 27 -12 19 -49 19 -72 1 -10
-8 -11 -6 -5 8 7 18 6 18 -17 3 -14 -9 -26 -22 -26 -28 -1 -6 -2 -18 -3 -26
-2 -22 -18 -18 -24 6 -4 15 -11 20 -22 15 -9 -3 -14 -2 -11 3 10 16 -22 20
-35 5 -11 -13 -16 -11 -36 15 -14 17 -33 31 -44 31 -11 0 -18 4 -14 9 3 5 -5
11 -17 13 -38 5 -34 28 6 28 19 0 37 4 40 9 3 5 -35 12 -85 16 -50 3 -109 13
-131 21 -53 19 -58 17 -28 -6 l25 -21 -30 7 c-16 4 -50 17 -75 31 -49 26 -160
119 -160 134 0 5 9 13 21 17 20 8 19 11 -21 61 -27 34 -49 77 -62 120 -10 36
-23 80 -28 96 -5 17 -12 49 -16 73 -4 27 -14 47 -25 53 -14 7 -19 6 -19 -3 0
-7 -3 -8 -9 -2 -5 5 -7 21 -4 37 4 20 9 25 18 17 9 -7 19 5 38 48 47 100 71
135 112 164 143 99 530 129 755 59 104 -33 184 -124 208 -236 6 -27 14 -101
18 -162 10 -171 28 -135 44 86 5 72 14 128 21 135 9 8 10 1 4 -34 -14 -84 -14
-180 0 -180 8 0 17 5 20 10 3 6 1 10 -5 10 -6 0 -9 4 -6 9 3 5 35 6 70 4 73
-6 119 2 113 20 -2 6 -14 14 -28 18 -19 5 -14 7 26 13 76 10 125 25 126 39 3
27 -4 41 -32 69 -16 16 -29 37 -29 46 0 15 2 15 10 2 8 -13 11 -13 22 2 11 14
24 15 104 8 49 -5 103 -14 120 -21 16 -7 32 -12 36 -11 4 1 5 -5 2 -13 -4 -9
9 -32 32 -58 31 -34 45 -42 73 -42 31 0 36 -5 63 -57 25 -47 31 -71 35 -147 3
-63 1 -91 -7 -91 -6 0 -9 -4 -6 -9 3 -4 -4 -28 -16 -52 -16 -31 -21 -58 -19
-92 2 -38 -2 -52 -16 -63 -17 -12 -17 -13 0 -14 12 0 17 -8 18 -27 0 -16 4
-37 8 -48 5 -11 4 -33 -1 -50 -8 -25 -15 -100 -18 -192 0 -11 -6 -23 -14 -26
-8 -3 -12 -16 -10 -29 12 -83 16 -98 29 -98 8 0 18 -6 22 -14 4 -8 25 -21 46
-29 20 -9 37 -21 37 -26 0 -6 11 -11 25 -11 16 0 25 -6 25 -15 0 -9 10 -15 26
-15 14 0 23 4 19 10 -4 6 7 10 24 10 17 0 31 5 31 10 0 6 12 9 28 8 27 -3 27
-3 34 77 3 44 18 115 32 158 27 80 35 126 16 97 -5 -8 -12 -11 -16 -7 -4 4 1
15 10 26 13 14 16 28 11 55 -6 30 -3 41 19 67 22 25 25 37 20 65 -8 45 11 45
33 0 11 -24 21 -32 31 -28 12 4 14 1 7 -14 -4 -10 -12 -41 -18 -69 -5 -27 -22
-77 -38 -110 -36 -76 -51 -142 -39 -181 4 -16 9 -24 9 -18 1 7 21 21 46 33 24
11 49 30 55 41 19 35 42 40 88 19 46 -22 69 -19 114 12 14 11 30 19 35 19 17
0 62 50 72 83 27 81 -27 238 -91 266 -15 7 -28 16 -28 21 0 16 83 90 101 90
23 0 39 -26 74 -119 25 -67 27 -82 22 -170 -5 -97 -30 -182 -66 -225 -21 -23
-64 -47 -125 -67 l-50 -16 27 -26 c29 -30 58 -34 81 -12 8 8 17 15 21 15 11 0
75 69 75 81 0 6 18 33 41 60 41 49 105 184 112 236 2 16 0 39 -5 52 -5 15 -4
28 3 37 6 8 8 14 4 14 -5 0 -1 8 7 18 20 22 33 124 19 149 -5 10 -21 44 -35
75 -42 92 -130 145 -220 133 -42 -5 -48 -4 -38 8 7 8 9 17 5 20 -3 4 -1 7 5 7
7 0 12 4 12 10 0 5 10 21 22 35 29 34 72 32 129 -4 92 -58 142 -148 154 -279
l8 -71 18 23 c11 13 19 40 19 60 0 34 26 126 39 136 3 3 6 28 7 55 1 84 24
266 36 289 6 11 11 47 11 78 -1 46 3 61 18 72 16 11 17 17 8 44 -10 29 -9 67
6 227 8 89 13 102 36 108 18 5 19 9 9 27 -6 12 -9 24 -6 27 3 3 -1 21 -9 39
-15 37 -17 135 -3 145 6 4 1 24 -11 48 -15 29 -19 46 -12 59 15 27 17 68 5 93
-26 55 -34 82 -34 115 0 19 -15 67 -34 107 -18 40 -39 97 -46 127 -13 58 -15
62 -44 104 -10 14 -21 46 -23 71 -3 25 -14 53 -26 66 -17 18 -18 25 -7 42 11
19 8 25 -37 66 -71 65 -103 91 -114 91 -5 0 -9 5 -9 10 0 6 7 10 16 10 11 0
14 5 10 16 -3 9 -6 18 -6 20 0 2 -9 4 -20 4 -15 0 -20 7 -20 26 0 17 -6 28
-20 31 -23 6 -26 23 -7 42 10 11 6 12 -18 7 -51 -10 -89 40 -64 86 10 19 8 25
-18 47 -26 22 -63 78 -63 95 0 3 7 2 17 -1 11 -4 14 -3 9 5 -9 16 -49 15 -64
0 -9 -9 -12 -7 -12 11 0 13 -13 39 -30 58 -16 18 -30 38 -30 43 0 6 -12 10
-27 10 -31 0 -84 46 -76 66 6 17 -18 18 -36 2 -11 -11 -13 -10 -8 4 4 12 2 15
-8 12 -8 -3 -28 4 -44 15 -16 12 -40 21 -53 21 -28 0 -42 9 -51 34 -5 13 -14
17 -29 13 -14 -4 -29 1 -43 16 -39 40 -60 52 -95 55 -19 1 -40 9 -46 17 -6 8
-15 15 -19 15 -5 0 -21 15 -37 32 -22 24 -38 33 -66 34 -20 1 -55 7 -77 14
-22 7 -56 13 -75 14 -19 1 -44 7 -55 14 -19 11 -18 11 9 12 37 0 28 9 -32 32
-59 22 -74 23 -70 1 2 -12 -7 -20 -30 -26 -18 -6 -35 -7 -38 -4 -11 11 7 27
32 27 31 0 30 6 -3 34 -22 19 -31 21 -54 13 -20 -8 -33 -7 -50 4 -14 8 -41 13
-64 11z m55 -46 c35 4 60 2 64 -4 3 -6 -16 -13 -49 -17 -30 -3 -55 -10 -55
-14 0 -4 -14 -8 -31 -9 -17 -1 -40 -7 -51 -13 -24 -13 -48 -5 -48 15 0 8 -6
17 -12 19 -7 3 5 6 27 7 22 0 51 7 65 15 15 8 26 10 28 4 3 -6 27 -7 62 -3z
m-363 -22 c-3 -3 -12 -4 -19 -1 -8 3 -5 6 6 6 11 1 17 -2 13 -5z m143 -11 c11
-10 20 -21 20 -26 0 -9 -97 0 -114 11 -14 8 32 22 51 15 11 -4 14 -3 9 5 -11
18 11 14 34 -5z m-190 -2 c0 -5 -7 -14 -15 -21 -13 -11 -14 -10 -9 3 3 10 -1
17 -13 20 -12 3 -9 5 10 6 15 0 27 -3 27 -8z m53 -18 c-7 -2 -19 -2 -25 0 -7
3 -2 5 12 5 14 0 19 -2 13 -5z m387 -3 c0 -5 -7 -10 -16 -10 -8 0 -12 5 -9 10
3 6 10 10 16 10 5 0 9 -4 9 -10z m190 1 c0 -17 -15 -19 -35 -5 -18 13 -18 14
8 14 15 0 27 -4 27 -9z m-681 -37 c-10 -13 -24 -15 -63 -10 -82 9 -80 26 3 26
66 0 72 -2 60 -16z m-139 -4 c0 -5 -7 -10 -16 -10 -8 0 -12 5 -9 10 3 6 10 10
16 10 5 0 9 -4 9 -10z m430 0 c0 -5 -9 -10 -19 -10 -11 0 -23 5 -26 10 -4 6 5
10 19 10 14 0 26 -4 26 -10z m625 -32 c25 -11 32 -23 17 -31 -7 -5 -52 27 -52
37 0 8 6 8 35 -6z m-128 -44 c-3 -3 -12 -4 -19 -1 -8 3 -5 6 6 6 11 1 17 -2
13 -5z m107 -14 c17 -17 -1 -22 -43 -10 -25 6 -39 15 -35 21 7 12 63 4 78 -11z
m-766 -27 c43 -10 32 -21 -29 -28 -60 -7 -93 1 -51 12 12 3 22 12 22 20 0 11
5 13 18 8 9 -4 27 -10 40 -12z m-613 -3 c-3 -5 -14 -10 -23 -9 -14 0 -13 2 3
9 27 11 27 11 20 0z m480 0 c3 -6 -4 -10 -17 -10 -18 0 -20 2 -8 10 19 12 18
12 25 0z m-75 -15 c-14 -17 -40 -20 -40 -6 0 8 18 16 44 20 5 0 3 -6 -4 -14z
m-573 -1 c-3 -3 -12 -4 -19 -1 -8 3 -5 6 6 6 11 1 17 -2 13 -5z m424 -47 c-10
-9 -11 -8 -5 6 3 10 9 15 12 12 3 -3 0 -11 -7 -18z m229 19 c0 -2 -20 -11 -45
-19 -48 -17 -64 -6 -17 11 28 11 62 15 62 8z m865 -16 c4 -6 -8 -10 -30 -10
-22 0 -34 4 -30 10 3 6 17 10 30 10 13 0 27 -4 30 -10z m164 -86 c2 -2 2 -6
-1 -9 -9 -9 -58 6 -58 17 0 9 49 3 59 -8z m-1762 -120 c-3 -3 -12 -4 -19 -1
-8 3 -5 6 6 6 11 1 17 -2 13 -5z m-224 -14 c8 0 8 -3 0 -11 -13 -13 -43 -5
-43 12 0 6 7 8 16 5 9 -3 21 -6 27 -6z m472 1 c-15 -13 -62 -26 -50 -13 6 5
19 12 30 15 11 3 22 5 25 6 2 0 0 -3 -5 -8z m-535 -11 c-20 -13 -43 -13 -35 0
3 6 16 10 28 10 18 0 19 -2 7 -10z m2560 0 c0 -5 -5 -10 -11 -10 -5 0 -7 5 -4
10 3 6 8 10 11 10 2 0 4 -4 4 -10z m-2210 -14 c0 -2 -7 -7 -16 -10 -8 -3 -12
-2 -9 4 6 10 25 14 25 6z m2241 -19 c-1 -12 -15 -9 -19 4 -3 6 1 10 8 8 6 -3
11 -8 11 -12z m-1271 -113 c0 -2 -12 -4 -26 -4 -14 0 -23 4 -20 9 6 8 46 4 46
-5z m404 -214 c20 -22 36 -45 36 -52 0 -6 -1 -9 -3 -7 -2 2 -23 25 -47 52 -23
26 -38 47 -32 47 5 0 26 -18 46 -40z m490 -9 c-2 -3 -12 3 -22 13 -16 17 -16
18 5 5 12 -7 20 -15 17 -18z m-2774 -28 c0 -22 -2 -25 -10 -13 -13 20 -13 40
0 40 6 0 10 -12 10 -27z m3390 -28 c0 -23 -3 -27 -10 -15 -5 8 -10 29 -10 45
0 23 3 27 10 15 5 -8 10 -28 10 -45z m-3400 -100 c0 -8 -4 -15 -10 -15 -5 0
-10 7 -10 15 0 8 5 15 10 15 6 0 10 -7 10 -15z m3338 -76 c19 -30 11 -32 -11
-3 -10 13 -14 24 -10 24 5 0 14 -9 21 -21z m-2889 -150 c21 -10 38 -13 40 -8
5 17 30 -24 31 -51 0 -14 4 -20 8 -15 16 23 91 8 77 -16 -4 -5 8 -9 25 -9 23
0 33 -5 37 -20 3 -11 11 -20 18 -20 8 0 17 -9 20 -21 4 -12 12 -18 21 -15 8 3
17 -1 20 -9 4 -8 16 -15 29 -15 13 0 25 -7 29 -15 3 -8 12 -15 20 -15 8 0 22
-7 30 -16 9 -9 31 -18 49 -21 17 -3 38 -10 45 -15 8 -8 12 -7 12 3 1 10 3 9
10 -2 9 -15 27 -16 147 -11 76 3 159 6 186 6 26 1 47 5 47 9 0 5 8 6 18 3 10
-4 27 1 38 9 22 16 54 20 54 6 0 -13 41 -10 59 3 12 9 13 7 8 -7 -6 -16 -2
-17 23 -13 16 2 33 0 36 -5 4 -6 11 -6 19 1 10 8 13 7 11 -6 -1 -20 17 -31 67
-39 23 -4 37 -11 37 -20 0 -14 12 -19 33 -16 14 2 51 -21 66 -41 7 -11 24 -23
37 -28 14 -6 24 -18 24 -30 0 -27 14 -25 34 5 l17 25 38 -38 c37 -36 79 -51
91 -32 8 12 80 -21 80 -36 0 -7 7 -19 15 -28 9 -8 17 -32 18 -53 1 -21 5 -40
9 -43 17 -13 27 -168 12 -192 -4 -6 -1 -14 6 -18 7 -4 14 -39 17 -86 3 -56 10
-87 24 -106 10 -15 19 -34 19 -42 0 -18 28 -70 69 -126 32 -45 48 -97 34 -111
-5 -5 -54 -10 -109 -10 -96 -1 -98 -2 -65 -16 26 -11 40 -12 61 -3 36 15 135
10 168 -8 15 -9 52 -19 82 -22 46 -6 38 -7 -50 -8 -58 -1 -112 3 -120 8 -13 8
-12 10 4 10 16 0 17 3 8 12 -9 9 -16 7 -32 -10 -25 -27 -36 -28 -49 -4 -10 16
-10 16 -11 0 0 -10 -6 -18 -14 -18 -8 0 -17 -6 -20 -12 -4 -8 -8 -9 -11 -3
-18 35 -26 39 -70 37 -26 -1 -55 2 -64 7 -21 12 -37 2 -42 -24 -3 -13 -16 -22
-38 -26 -18 -4 -37 -12 -41 -19 -11 -17 -21 16 -14 45 6 24 5 24 -48 18 -49
-6 -52 -5 -39 10 7 10 22 17 33 17 31 0 11 19 -27 26 -20 3 -37 9 -40 13 -6
11 121 -7 152 -21 18 -9 49 -11 87 -8 l58 5 -22 20 c-12 11 -26 30 -31 42 -5
13 -37 38 -80 60 -123 65 -145 77 -176 101 -17 12 -39 22 -49 22 -9 0 -33 12
-52 26 -27 21 -48 27 -96 30 -134 7 -222 17 -234 27 -7 5 -15 7 -19 3 -3 -3 0
-6 8 -6 12 0 12 -2 -1 -9 -8 -6 -19 -7 -25 -3 -16 10 -37 14 -82 14 -24 0 -43
4 -43 10 0 6 -6 8 -14 5 -8 -3 -17 -3 -21 1 -7 7 -31 9 -162 14 -68 3 -83 0
-92 -14 -8 -13 -19 -16 -41 -12 -20 5 -30 3 -30 -6 0 -7 -6 -10 -14 -7 -7 3
-23 -1 -34 -9 -12 -8 -45 -16 -73 -18 -28 -2 -55 -9 -59 -16 -4 -7 -10 -8 -13
-3 -4 5 -27 11 -53 11 -55 3 -65 7 -57 27 3 8 0 15 -6 15 -6 0 -11 -5 -11 -11
0 -5 -5 -7 -10 -4 -6 4 -17 2 -24 -4 -14 -12 -46 -5 -46 9 0 9 -83 31 -102 28
-7 -2 -12 3 -10 11 2 9 -4 12 -19 8 -12 -3 -39 1 -61 10 -32 13 -42 13 -48 3
-5 -8 -10 -9 -14 -1 -4 6 -15 7 -30 1 -13 -4 -89 -11 -169 -14 -80 -3 -158
-11 -172 -16 -14 -6 -47 -10 -73 -10 -34 0 -58 -7 -85 -26 -21 -14 -41 -23
-45 -20 -3 4 5 30 17 59 13 28 34 77 47 107 24 59 87 282 108 390 40 196 111
294 242 337 25 8 33 7 42 -6 10 -14 11 -14 11 2 1 13 7 16 24 12 18 -5 34 4
70 38 26 24 47 49 47 55 0 7 10 12 23 12 13 0 34 12 48 26 28 30 78 53 98 46
8 -3 31 -13 50 -23z m1215 -300 c-8 -14 -24 -10 -24 6 0 9 6 12 15 9 8 -4 12
-10 9 -15z m1711 -225 c4 -21 -3 -13 -24 26 -17 30 -30 59 -31 65 0 20 49 -63
55 -91z m-1355 66 c0 -5 -2 -10 -4 -10 -3 0 -8 5 -11 10 -3 6 -1 10 4 10 6 0
11 -4 11 -10z m1774 -386 c3 -8 2 -12 -4 -9 -6 3 -10 10 -10 16 0 14 7 11 14
-7z m-436 -99 c-3 -3 -9 2 -12 12 -6 14 -5 15 5 6 7 -7 10 -15 7 -18z m-1653
-341 c33 -9 64 -19 68 -23 12 -12 -168 18 -211 35 l-37 14 60 -5 c33 -3 87
-13 120 -21z m-537 9 c-10 -2 -28 -2 -40 0 -13 2 -5 4 17 4 22 1 32 -1 23 -4z
m877 -3 c3 -5 1 -10 -4 -10 -6 0 -11 5 -11 10 0 6 2 10 4 10 3 0 8 -4 11 -10z
m-978 -6 c-3 -3 -12 -4 -19 -1 -8 3 -5 6 6 6 11 1 17 -2 13 -5z m-363 -103 c9
-13 -223 -24 -259 -11 l-30 10 35 -4 c19 -2 71 -1 115 3 119 12 133 12 139 2z
m-324 -85 c0 -3 -4 -8 -10 -11 -5 -3 -10 -1 -10 4 0 6 5 11 10 11 6 0 10 -2
10 -4z m45 -97 c5 -52 4 -52 -5 -14 -21 87 -22 90 -10 79 6 -6 13 -35 15 -65z
m-640 -60 c-8 -12 -32 -12 -40 1 -11 18 5 31 26 20 11 -6 17 -15 14 -21z
m3175 -46 c0 -7 -4 -13 -10 -13 -5 0 -10 6 -10 14 0 8 -3 23 -6 33 -5 16 -4
16 10 -1 9 -11 16 -26 16 -33z m-203 -15 c-3 -7 -5 -2 -5 12 0 14 2 19 5 13 2
-7 2 -19 0 -25z m133 -57 c0 -5 -7 -14 -15 -21 -12 -10 -15 -10 -15 2 0 8 3
18 7 21 9 10 23 9 23 -2z m147 -45 c-3 -19 0 -39 6 -45 6 -6 7 -14 2 -18 -4
-5 -10 -2 -12 5 -9 23 -31 12 -38 -18 -5 -22 -12 -30 -28 -30 -20 1 -20 2 -4
11 9 5 17 20 17 33 0 13 7 30 16 37 9 7 20 23 25 36 13 34 22 28 16 -11z m39
-44 c-14 -15 -15 -13 -3 17 8 23 13 28 15 16 2 -10 -3 -25 -12 -33z m-166 -51
c0 -12 -20 -25 -27 -18 -7 7 6 27 18 27 5 0 9 -4 9 -9z m140 0 c0 -6 -4 -13
-10 -16 -5 -3 -10 1 -10 9 0 9 5 16 10 16 6 0 10 -4 10 -9z m-141 -68 c0 -25
-1 -26 -9 -8 -12 27 -12 35 0 35 6 0 10 -12 9 -27z m81 -33 c0 -5 -5 -10 -11
-10 -5 0 -7 5 -4 10 3 6 8 10 11 10 2 0 4 -4 4 -10z m-313 -52 c-3 -8 -6 -5
-6 6 -1 11 2 17 5 13 3 -3 4 -12 1 -19z m284 -21 c-17 -17 -24 -1 -10 25 12
21 14 21 17 4 2 -10 -1 -23 -7 -29z m-311 -27 c0 -5 -4 -10 -10 -10 -5 0 -10
5 -10 10 0 6 5 10 10 10 6 0 10 -4 10 -10z m330 -34 c0 -22 -11 -46 -21 -46
-10 0 -12 43 -2 53 11 12 23 8 23 -7z m-340 -42 c0 -8 -4 -12 -10 -9 -5 3 -10
13 -10 21 0 8 5 12 10 9 6 -3 10 -13 10 -21z m297 -12 c10 -7 10 -12 -1 -27
-12 -17 -13 -17 -18 8 -5 28 -1 32 19 19z m-17 -87 c0 -8 -7 -15 -15 -15 -8 0
-15 -4 -15 -10 0 -5 -5 -10 -12 -10 -6 0 -1 11 12 25 27 29 30 30 30 10z
m-1412 -110 c-3 -3 -9 2 -12 12 -6 14 -5 15 5 6 7 -7 10 -15 7 -18z m336 -151
c4 -12 2 -12 -14 -4 -11 6 -20 15 -20 20 0 14 28 1 34 -16z m-2397 -186 c-3
-8 -6 -5 -6 6 -1 11 2 17 5 13 3 -3 4 -12 1 -19z m2640 0 c-3 -8 -6 -5 -6 6
-1 11 2 17 5 13 3 -3 4 -12 1 -19z m38 -178 c-10 -11 -21 -17 -24 -14 -3 3 3
12 13 20 28 20 32 17 11 -6z m55 -41 c0 -4 -9 -7 -19 -6 -14 1 -17 5 -11 13 6
6 6 15 2 20 -4 4 1 2 11 -5 9 -7 17 -17 17 -22z m-1925 -19 c-3 -5 -1 -10 5
-10 7 0 10 -19 9 -50 -3 -51 -5 -55 -25 -42 -14 9 -27 96 -19 122 6 18 8 18
21 5 9 -8 12 -19 9 -25z m98 -4 c15 -24 27 -50 28 -57 0 -8 7 4 15 25 18 49
41 76 66 76 27 0 93 -64 105 -102 9 -27 11 -29 12 -10 3 63 54 104 116 93 24
-5 35 -16 54 -59 25 -54 41 -66 41 -33 0 24 55 71 83 71 27 0 61 -70 51 -103
-17 -58 -91 -79 -129 -37 l-19 21 -13 -24 -12 -24 -168 4 c-146 4 -170 6 -183
22 -11 13 -25 17 -47 14 -37 -6 -73 24 -73 59 0 24 31 108 40 108 3 -1 17 -20
33 -44z m699 -3 c4 -57 -3 -88 -24 -110 -26 -28 -40 -29 -63 -3 -12 14 -16 28
-12 50 15 75 95 125 99 63z m-784 -227 c-10 -7 -14 -17 -10 -21 4 -4 -3 -2
-15 4 -33 17 -28 31 10 31 29 -1 30 -2 15 -14z m-78 -36 c0 -5 -6 -10 -14 -10
-8 0 -18 5 -21 10 -3 6 3 10 14 10 12 0 21 -4 21 -10z m38 4 c-4 -3 8 -19 25
-36 32 -30 32 -30 7 -27 -17 3 -25 10 -24 22 2 24 -22 22 -29 -3 -3 -11 -10
-20 -15 -20 -14 0 -2 43 16 58 16 12 30 17 20 6z m1807 -4 c3 -5 -1 -10 -9
-10 -8 0 -18 5 -21 10 -3 6 1 10 9 10 8 0 18 -4 21 -10z m-1885 -40 c0 -5 -9
-10 -20 -10 -11 0 -20 5 -20 10 0 6 9 10 20 10 11 0 20 -4 20 -10z m2082 -65
l-17 -33 -22 20 c-12 12 -20 25 -16 31 3 5 9 3 14 -4 6 -10 9 -6 9 12 0 35 10
42 31 23 17 -15 17 -18 1 -49z m-1868 46 c10 -15 -22 -20 -34 -5 -10 11 -9 14
8 14 12 0 23 -4 26 -9z m617 -6 c38 -12 21 -30 -26 -27 -27 3 -45 9 -45 16 0
25 17 28 71 11z m-151 -6 c12 -9 11 -10 -7 -6 -13 3 -25 1 -28 -4 -3 -4 -13
-5 -23 -2 -14 6 -13 8 8 14 35 10 33 10 50 -2z m-125 -9 c-8 -13 -35 -13 -55
0 -11 7 -5 10 23 10 23 0 36 -4 32 -10z m195 6 c0 -11 -19 -15 -25 -6 -3 5 1
10 9 10 9 0 16 -2 16 -4z m1200 -38 c0 -23 -3 -29 -11 -21 -6 6 -8 20 -4 32 9
30 15 26 15 -11z m565 -48 c3 -5 -3 -10 -14 -10 -11 0 -23 5 -26 10 -3 6 3 10
14 10 11 0 23 -4 26 -10z m-265 -70 c0 -5 -2 -10 -4 -10 -3 0 -8 5 -11 10 -3
6 -1 10 4 10 6 0 11 -4 11 -10z m-2670 -530 c0 -5 -5 -10 -11 -10 -5 0 -7 5
-4 10 3 6 8 10 11 10 2 0 4 -4 4 -10z m150 -270 c0 -5 -4 -10 -10 -10 -5 0
-10 5 -10 10 0 6 5 10 10 10 6 0 10 -4 10 -10z m400 -387 c11 -45 18 -51 38
-31 9 9 12 6 12 -15 0 -19 -4 -25 -15 -21 -9 4 -15 0 -15 -9 0 -22 20 -32 31
-16 8 13 13 5 10 -15 -1 -4 4 -15 10 -22 9 -11 9 -18 1 -26 -12 -12 -35 -1
-27 12 6 9 -13 25 -21 18 -8 -8 27 -68 37 -63 5 4 9 -5 9 -19 0 -14 -6 -26
-12 -26 -10 0 -10 -2 -2 -8 7 -4 11 -19 9 -34 -2 -20 2 -29 16 -33 11 -4 17
-11 13 -16 -3 -6 -12 -8 -20 -5 -16 6 -7 -22 13 -42 7 -7 13 -22 13 -33 0 -10
7 -19 15 -19 8 0 15 -7 15 -16 0 -11 -6 -14 -20 -9 -16 5 -20 2 -20 -14 0 -12
4 -21 10 -21 5 0 9 -10 7 -22 -1 -16 3 -23 15 -22 10 1 17 -1 16 -5 -2 -22 5
-31 26 -31 13 0 26 -5 28 -11 2 -7 17 -13 33 -15 16 -2 31 -8 33 -14 2 -5 10
-10 18 -10 7 0 11 -6 8 -14 -4 -10 6 -16 34 -21 22 -3 48 -14 59 -24 11 -11
41 -20 71 -23 62 -6 104 -35 77 -54 -13 -10 -14 -14 -2 -25 18 -18 28 -57 15
-61 -5 -2 -6 -12 -1 -23 10 -24 35 -32 26 -9 -4 12 -2 15 8 12 8 -3 13 -11 11
-17 -1 -7 1 -10 6 -7 5 3 19 -4 32 -16 l22 -21 -23 -19 c-13 -10 -19 -18 -14
-17 6 1 18 -1 28 -6 9 -4 26 -5 37 -2 26 7 25 -11 -2 -40 -30 -32 -64 -30 -76
5 l-10 27 -1 -25 c0 -31 24 -68 32 -48 5 13 11 -25 8 -50 -1 -8 4 -21 13 -30
13 -16 9 -17 -52 -14 l-67 2 64 -25 c35 -14 74 -25 87 -25 14 0 24 -6 24 -15
0 -11 -12 -13 -62 -10 -35 2 -69 5 -77 5 -8 0 -11 6 -7 16 4 10 2 14 -6 11
-24 -8 -49 13 -48 41 3 42 1 45 -15 32 -10 -8 -13 -21 -9 -34 6 -19 5 -20 -7
-4 -18 23 -34 10 -34 -27 0 -20 -5 -30 -15 -30 -10 0 -15 10 -16 30 -1 40 -13
65 -30 65 -17 0 -18 -24 -3 -52 6 -11 8 -22 6 -25 -8 -7 -81 33 -98 53 -11 15
-7 14 22 -4 45 -27 48 -27 42 -2 -3 11 -14 20 -24 20 -20 0 -26 24 -9 35 16
10 12 40 -8 58 -10 10 -21 14 -25 11 -6 -7 3 -36 14 -44 4 -3 4 -12 -1 -20 -8
-12 -14 -9 -38 16 -16 18 -38 35 -50 38 -22 7 -26 19 -22 64 1 12 -3 22 -8 22
-13 0 -82 71 -82 85 0 7 -7 18 -15 25 -8 7 -15 21 -15 32 0 10 -7 21 -16 25
-11 4 -12 8 -4 13 7 4 -1 20 -24 46 -20 21 -36 43 -36 47 0 5 -8 21 -19 35
-28 41 -63 168 -69 255 -5 78 13 176 44 238 7 15 14 60 15 100 0 41 3 85 6 98
l6 24 18 -24 c10 -13 23 -43 29 -66z m30 47 c0 -5 -4 -10 -10 -10 -5 0 -10 5
-10 10 0 6 5 10 10 10 6 0 10 -4 10 -10z m3918 -98 c7 -22 -14 -13 -44 19
l-29 31 34 -19 c19 -10 36 -24 39 -31z m927 -432 c3 -5 -3 -10 -14 -10 -11 0
-23 5 -26 10 -3 6 3 10 14 10 11 0 23 -4 26 -10z m-6491 -18 c-11 -10 -28 -21
-39 -24 -11 -3 -28 -9 -37 -13 -11 -4 -18 -3 -18 4 0 5 18 15 40 21 21 6 42
15 45 20 3 6 11 10 17 10 7 0 3 -8 -8 -18z m6611 -32 c-3 -5 -13 -10 -21 -10
-8 0 -12 5 -9 10 3 6 13 10 21 10 8 0 12 -4 9 -10z m-4815 -10 c0 -5 -2 -10
-4 -10 -3 0 -8 5 -11 10 -3 6 -1 10 4 10 6 0 11 -4 11 -10z m-1974 -100 c-45
-23 -46 -23 -46 -11 0 10 45 29 70 30 8 0 -3 -9 -24 -19z m3666 -62 c-7 -7
-12 -8 -12 -2 0 14 12 26 19 19 2 -3 -1 -11 -7 -17z m-68 -4 c9 -3 13 -10 10
-15 -8 -14 -21 -11 -28 6 -6 17 -4 18 18 9z m-87 -69 c0 -8 -4 -12 -9 -9 -5 3
-17 0 -26 -7 -13 -11 -12 -8 2 9 22 26 33 28 33 7z m3813 -50 c11 -13 10 -14
-4 -9 -9 3 -16 10 -16 15 0 13 6 11 20 -6z m-3575 -54 c-6 -5 -25 10 -25 20 0
5 6 4 14 -3 8 -7 12 -15 11 -17z m-4355 -11 c-14 -10 -27 -17 -29 -15 -8 8 22
35 38 35 12 0 10 -5 -9 -20z m4317 -10 c1 -11 -2 -20 -8 -20 -5 0 -9 -9 -9
-20 0 -11 -4 -20 -8 -20 -13 0 -8 46 7 63 17 21 16 21 18 -3z m-305 -41 c-22
-22 -24 -18 -10 13 8 17 15 22 20 15 4 -6 -1 -19 -10 -28z m258 -5 c0 -19 -4
-34 -10 -34 -5 0 -10 18 -10 41 0 24 4 38 10 34 6 -3 10 -22 10 -41z m-410 -4
c0 -5 -2 -10 -4 -10 -3 0 -8 5 -11 10 -3 6 -1 10 4 10 6 0 11 -4 11 -10z m100
-30 c0 -5 -4 -10 -9 -10 -6 0 -13 5 -16 10 -3 6 1 10 9 10 9 0 16 -4 16 -10z
m-185 -141 c4 -6 -1 -17 -11 -24 -27 -20 -32 -18 -26 10 4 26 26 34 37 14z
m4695 -54 c7 -9 8 -15 2 -15 -5 0 -12 7 -16 15 -3 8 -4 15 -2 15 2 0 9 -7 16
-15z m-4695 -5 c-3 -5 -10 -10 -16 -10 -5 0 -9 5 -9 10 0 6 7 10 16 10 8 0 12
-4 9 -10z m-108 -42 c-3 -8 -6 -5 -6 6 -1 11 2 17 5 13 3 -3 4 -12 1 -19z
m-667 -13 c11 -13 10 -14 -4 -9 -9 3 -16 10 -16 15 0 13 6 11 20 -6z m723 8
c4 -3 0 -15 -10 -25 -17 -19 -89 -27 -78 -8 3 6 17 10 31 10 14 0 27 7 30 15
7 16 17 19 27 8z m-536 -49 c-3 -3 -12 -4 -19 -1 -8 3 -5 6 6 6 11 1 17 -2 13
-5z m5428 -113 c11 -5 20 -13 20 -19 0 -5 13 -22 28 -36 16 -15 27 -30 25 -35
-2 -5 -27 15 -56 45 -53 54 -55 60 -17 45z m-7205 -1336 c5 -14 15 -27 22 -29
61 -16 98 -22 98 -15 0 5 7 6 15 3 19 -8 20 -24 2 -24 -8 0 -14 -6 -14 -14 0
-10 8 -11 31 -6 49 11 67 -2 21 -16 -35 -10 -40 -15 -37 -37 1 -14 -3 -29 -9
-33 -8 -4 -9 -3 -5 4 4 7 1 12 -8 12 -9 0 -16 -6 -16 -13 0 -15 -56 -38 -75
-31 -9 4 -12 -2 -11 -19 1 -21 4 -23 32 -17 35 8 92 2 100 -11 3 -5 11 -9 17
-9 9 0 8 3 -1 8 -10 7 -10 15 -2 36 5 15 14 24 20 21 5 -3 10 -1 10 4 0 6 8
11 18 11 10 0 23 5 29 11 6 6 16 8 22 4 16 -9 2 -28 -16 -21 -10 4 -13 0 -11
-12 2 -9 14 -19 28 -20 25 -4 80 -41 64 -43 -27 -4 81 -18 139 -18 79 -1 83
-9 34 -73 -28 -36 -40 -44 -77 -49 -25 -3 -35 -7 -23 -7 47 -4 77 -32 32 -32
-16 0 -19 -4 -14 -20 5 -16 2 -20 -15 -20 -14 0 -20 5 -17 13 3 8 -7 12 -32
13 -20 1 -30 0 -23 -3 6 -3 10 -9 6 -14 -3 -5 6 -9 20 -9 14 0 27 -4 30 -9 11
-18 -7 -71 -33 -97 l-26 -27 25 7 c19 6 21 5 10 -3 -21 -15 -51 -14 -48 2 2 8
-17 12 -69 13 -67 2 -72 0 -63 -17 15 -26 0 -31 -98 -31 -156 0 -131 -12 45
-23 102 -6 177 -15 184 -22 8 -8 9 -26 2 -60 l-9 -48 -49 2 c-28 2 -124 8
-215 13 -258 17 -469 21 -440 10 20 -8 18 -9 -15 -4 -48 7 -43 7 -79 5 -27 -1
-28 -2 -12 -14 17 -13 17 -14 -8 -30 -14 -9 -30 -17 -36 -17 -5 0 -10 -4 -10
-8 0 -5 55 -8 123 -8 127 1 415 -16 599 -35 86 -9 111 -9 123 1 9 7 17 11 20
8 11 -11 43 -134 37 -140 -4 -4 -75 -1 -157 7 -192 18 -584 45 -655 45 -43 0
-59 -5 -73 -20 -16 -19 -15 -20 9 -26 26 -7 28 -26 3 -30 -7 -1 -18 -3 -24 -4
-24 -5 -36 2 -45 25 -7 18 -17 25 -37 25 -16 0 -35 5 -43 10 -11 7 -3 10 29
10 24 0 42 3 38 6 -11 11 -289 13 -441 3 -82 -5 -151 -8 -153 -5 -3 2 3 30 12
61 14 50 19 56 37 52 12 -3 42 -2 67 3 25 5 140 10 254 11 169 2 206 5 192 15
-9 7 -24 10 -32 7 -15 -6 -43 20 -43 39 0 4 19 8 43 9 38 0 40 1 17 10 -15 6
-117 9 -258 7 -261 -3 -245 -9 -222 72 8 31 14 35 42 35 143 2 163 5 148 20
-13 12 -39 21 -72 24 -16 2 -7 21 10 22 13 0 14 2 2 6 -8 2 -24 8 -35 13 -11
4 -28 11 -37 14 -25 7 -22 33 8 97 14 29 38 79 52 109 31 65 104 182 141 226
14 17 34 43 45 58 l19 26 18 -22 c11 -11 19 -17 19 -12 0 10 143 10 158 0 6
-3 26 1 46 9 43 18 46 18 46 1 0 -7 9 -25 21 -40 11 -14 17 -30 14 -36 -3 -6
4 -14 17 -19 l23 -9 -26 -10 c-14 -6 -41 -12 -60 -13 -19 -2 -45 -9 -59 -16
-14 -7 -31 -13 -38 -13 -7 0 -22 -5 -33 -10 -18 -10 -18 -12 -2 -28 14 -15 40
-17 183 -17 182 0 220 9 220 50 0 13 7 28 15 35 12 10 13 16 4 26 -9 11 -3 18
32 33 24 11 47 17 51 14 5 -2 16 1 25 9 13 10 17 10 20 1 3 -7 9 -13 14 -13 6
0 8 3 6 8 -6 9 19 33 26 25 3 -3 15 14 25 36 l20 41 -21 0 c-12 0 -29 5 -37
10 -11 7 -2 10 33 10 42 0 49 -3 57 -25z m690 -15 c0 -14 -15 -19 -29 -10 -17
10 -5 31 14 23 8 -3 15 -9 15 -13z m-480 -50 c0 -5 -2 -10 -4 -10 -3 0 -8 5
-11 10 -3 6 -1 10 4 10 6 0 11 -4 11 -10z m527 -1 c39 -7 63 -16 60 -23 -2 -6
-37 -28 -78 -48 -72 -37 -77 -38 -223 -44 l-149 -7 6 32 c17 82 22 85 132 92
175 9 187 9 252 -2z m-447 -33 c0 -2 -7 -7 -16 -10 -8 -3 -12 -2 -9 4 6 10 25
14 25 6z m-560 -41 c10 -12 10 -19 2 -27 -7 -7 -13 -9 -13 -5 -1 4 -2 10 -3
15 -1 4 -5 13 -9 20 -12 17 8 15 23 -3z m-35 -15 c9 -15 -21 -23 -53 -15 -25
7 -25 8 -7 15 28 12 53 12 60 0z m1060 0 c-3 -5 -16 -10 -28 -9 -21 0 -21 1
-2 9 28 12 37 12 30 0z m-450 -10 c3 -5 1 -10 -4 -10 -6 0 -11 5 -11 10 0 6 2
10 4 10 3 0 8 -4 11 -10z m1007 -79 c46 -19 63 -24 88 -28 14 -2 38 -10 55
-18 16 -7 39 -16 50 -18 14 -3 11 -5 -9 -6 l-29 -1 23 -25 c13 -14 25 -23 28
-20 10 9 33 -27 49 -76 9 -28 22 -53 29 -56 7 -2 11 -10 8 -17 -3 -7 -1 -23 4
-37 5 -13 6 -35 2 -49 l-7 -25 -8 30 c-4 17 -11 48 -17 70 -31 127 -162 236
-320 266 -114 22 -129 29 -46 24 42 -2 87 -9 100 -14z m-952 -1 c0 -5 -5 -10
-11 -10 -5 0 -7 5 -4 10 3 6 8 10 11 10 2 0 4 -4 4 -10z m697 4 c-3 -3 -12 -4
-19 -1 -8 3 -5 6 6 6 11 1 17 -2 13 -5z m-207 -58 c0 -7 -62 -36 -76 -36 -7 0
-14 -3 -16 -7 -6 -15 -98 -74 -98 -64 0 5 5 13 10 16 6 4 7 11 4 17 -4 6 -2 8
4 4 6 -3 14 -1 19 7 13 21 153 78 153 63z m1795 -126 c3 -5 1 -10 -4 -10 -6 0
-11 5 -11 10 0 6 2 10 4 10 3 0 8 -4 11 -10z m-150 -170 c3 -5 1 -10 -4 -10
-6 0 -11 5 -11 10 0 6 2 10 4 10 3 0 8 -4 11 -10z m-2265 -10 c12 -8 11 -10
-7 -10 -12 0 -25 5 -28 10 -8 13 15 13 35 0z m2483 -27 c-7 -2 -19 -2 -25 0
-7 3 -2 5 12 5 14 0 19 -2 13 -5z m-3050 -190 c-7 -2 -19 -2 -25 0 -7 3 -2 5
12 5 14 0 19 -2 13 -5z m200 -4 c-7 -7 -24 -8 -54 -1 l-44 10 55 1 c39 1 51
-2 43 -10z m64 -5 c-3 -3 -12 -4 -19 -1 -8 3 -5 6 6 6 11 1 17 -2 13 -5z
m3103 -63 c0 -5 -7 -11 -15 -15 -9 -3 -15 0 -15 9 0 8 7 15 15 15 8 0 15 -4
15 -9z m-370 -21 c0 -13 -20 -13 -40 0 -12 8 -9 10 13 10 15 0 27 -4 27 -10z
m237 -10 c42 0 73 -4 73 -10 0 -5 -15 -11 -32 -11 -43 -2 -43 -2 -113 6 -54 6
-58 8 -40 21 13 9 22 11 29 4 5 -5 43 -10 83 -10z m-3775 -72 c-6 -6 -16 -7
-22 -3 -9 6 -9 9 1 16 17 10 34 0 21 -13z m78 12 c0 -5 -9 -10 -21 -10 -11 0
-17 5 -14 10 3 6 13 10 21 10 8 0 14 -4 14 -10z m3867 -55 c-25 -22 -57 -33
-57 -20 0 4 68 42 80 44 3 0 -8 -11 -23 -24z m-3811 4 c7 -6 44 -13 83 -16 72
-6 91 -18 46 -29 -50 -13 -23 -24 47 -19 41 3 75 1 78 -5 3 -5 27 -10 52 -11
33 -2 45 -6 41 -15 -8 -22 73 -32 93 -11 4 4 14 7 23 7 14 0 14 -2 1 -10 -13
-9 -13 -10 0 -10 9 -1 6 -5 -7 -10 -12 -5 -45 -5 -73 -1 -100 16 -799 22 -888
7 -23 -3 -42 -3 -42 2 0 5 14 27 31 49 27 35 35 40 50 30 13 -8 27 -7 58 7 22
10 47 16 55 13 9 -4 16 -2 16 3 0 4 39 9 88 9 146 0 152 1 152 10 0 12 82 12
96 0z m1061 -5 c-3 -3 -12 -4 -19 -1 -8 3 -5 6 6 6 11 1 17 -2 13 -5z m-717
-46 c0 -4 -6 -8 -14 -8 -8 0 -17 4 -20 8 -2 4 4 8 15 8 10 0 19 -4 19 -8z
m3190 -9 c0 -14 -17 -10 -23 5 -4 10 -1 13 9 9 7 -3 14 -9 14 -14z m127 15
c-7 -8 -108 -7 -115 1 -3 3 23 5 58 5 35 0 60 -3 57 -6z m60 0 c-3 -3 -12 -4
-19 -1 -8 3 -5 6 6 6 11 1 17 -2 13 -5z m-3194 -91 c-7 -2 -21 -2 -30 0 -10 3
-4 5 12 5 17 0 24 -2 18 -5z"/>
<path d="M4310 7591 c0 -6 5 -13 10 -16 6 -3 10 1 10 9 0 9 -4 16 -10 16 -5 0
-10 -4 -10 -9z"/>
<path d="M6008 7223 c7 -3 16 -2 19 1 4 3 -2 6 -13 5 -11 0 -14 -3 -6 -6z"/>
<path d="M3941 3538 c-1 -10 -5 -18 -11 -18 -5 0 -10 -5 -10 -12 0 -8 6 -7 16
4 9 9 14 22 11 30 -4 9 -6 7 -6 -4z"/>
<path d="M4000 3390 c0 -5 5 -10 10 -10 6 0 10 5 10 10 0 6 -4 10 -10 10 -5 0
-10 -4 -10 -10z"/>
<path d="M4360 3254 c0 -12 7 -24 15 -28 19 -7 19 5 0 30 -14 19 -14 19 -15
-2z"/>
<path d="M3940 3250 c0 -5 5 -10 10 -10 6 0 10 5 10 10 0 6 -4 10 -10 10 -5 0
-10 -4 -10 -10z"/>
<path d="M4250 3250 c0 -5 7 -10 16 -10 8 0 12 5 9 10 -3 6 -10 10 -16 10 -5
0 -9 -4 -9 -10z"/>
<path d="M4375 3160 c-3 -5 1 -10 10 -10 9 0 13 5 10 10 -3 6 -8 10 -10 10 -2
0 -7 -4 -10 -10z"/>
<path d="M4450 3061 c0 -5 5 -13 10 -16 6 -3 10 -2 10 4 0 5 -4 13 -10 16 -5
3 -10 2 -10 -4z"/>
<path d="M4120 2990 c0 -5 5 -10 10 -10 6 0 10 5 10 10 0 6 -4 10 -10 10 -5 0
-10 -4 -10 -10z"/>
<path d="M4320 2930 c0 -5 11 -10 25 -10 14 0 25 5 25 10 0 6 -11 10 -25 10
-14 0 -25 -4 -25 -10z"/>
<path d="M4290 2910 c0 -5 5 -10 10 -10 6 0 10 5 10 10 0 6 -4 10 -10 10 -5 0
-10 -4 -10 -10z"/>
<path d="M4445 2900 c-3 -6 1 -13 10 -16 19 -8 30 0 20 15 -8 14 -22 14 -30 1z"/>
<path d="M4291 2864 c0 -11 3 -14 6 -6 3 7 2 16 -1 19 -3 4 -6 -2 -5 -13z"/>
<path d="M2950 1180 c0 -5 5 -10 10 -10 6 0 10 5 10 10 0 6 -4 10 -10 10 -5 0
-10 -4 -10 -10z"/>
<path d="M2975 1100 c3 -5 8 -10 11 -10 2 0 4 5 4 10 0 6 -5 10 -11 10 -5 0
-7 -4 -4 -10z"/>
<path d="M1940 888 c0 -4 10 -8 23 -9 l22 0 -22 -9 c-13 -5 -23 -14 -23 -19 0
-5 -13 -12 -30 -16 -66 -14 -9 -35 97 -35 60 0 83 7 83 26 0 7 12 16 28 20 93
21 91 19 27 32 -73 14 -205 21 -205 10z"/>
<path d="M2658 883 c7 -3 16 -2 19 1 4 3 -2 6 -13 5 -11 0 -14 -3 -6 -6z"/>
<path d="M2748 883 c12 -2 30 -2 40 0 9 3 -1 5 -23 4 -22 0 -30 -2 -17 -4z"/>
<path d="M2570 870 c-11 -7 -6 -10 22 -10 20 0 40 5 43 10 8 13 -45 13 -65 0z"/>
<path d="M2858 873 c7 -3 16 -2 19 1 4 3 -2 6 -13 5 -11 0 -14 -3 -6 -6z"/>
<path d="M3008 863 c12 -2 30 -2 40 0 9 3 -1 5 -23 4 -22 0 -30 -2 -17 -4z"/>
<path d="M3074 862 c3 -5 -12 -12 -35 -16 -60 -10 -30 -32 40 -29 71 2 87 8
69 27 -17 16 -83 33 -74 18z"/>
<path d="M2817 854 c-3 -4 -56 -12 -87 -14 -23 -1 -23 -2 -5 -9 11 -4 34 -4
53 0 27 6 31 5 22 -6 -9 -11 -4 -15 23 -20 20 -4 45 -4 57 0 15 5 20 4 16 -4
-5 -7 8 -11 38 -11 51 0 58 9 21 27 -16 7 -23 7 -19 1 4 -6 1 -9 -5 -7 -7 3
-12 9 -12 14 0 14 -36 26 -54 19 -8 -4 -15 -2 -15 3 0 9 -26 14 -33 7z"/>
<path d="M2561 838 c-1 -11 -12 -20 -28 -24 -16 -3 -41 -10 -57 -15 -16 -5
-41 -10 -55 -10 -16 -1 -20 -3 -9 -6 10 -2 55 3 101 11 46 9 101 16 122 16 21
0 35 3 32 7 -4 3 -27 5 -51 5 -35 -2 -46 2 -49 15 -4 17 -5 17 -6 1z"/>
<path d="M3078 783 c6 -2 18 -2 25 0 6 3 1 5 -13 5 -14 0 -19 -2 -12 -5z"/>
<path d="M2653 693 c20 -2 37 -8 37 -13 0 -16 -49 -23 -66 -10 -19 17 -129 19
-145 3 -9 -9 -1 -10 30 -6 22 3 41 2 41 -4 0 -19 -58 -41 -124 -47 -38 -3 -70
-7 -71 -8 -2 -2 107 -3 241 -3 134 0 240 2 234 3 -26 9 -5 19 34 17 27 -2 52
2 63 10 17 14 17 14 -4 15 -13 0 -23 -4 -23 -8 0 -5 -10 -8 -22 -6 -13 1 -31
3 -40 3 -26 1 -22 22 5 29 33 9 -93 31 -168 30 -40 -1 -48 -3 -22 -5z"/>
<path d="M2958 663 c6 -2 18 -2 25 0 6 3 1 5 -13 5 -14 0 -19 -2 -12 -5z"/>
<path d="M2115 170 c-3 -5 3 -10 15 -10 12 0 18 5 15 10 -3 6 -10 10 -15 10
-5 0 -12 -4 -15 -10z"/>
<path d="M2220 134 c0 -14 3 -14 15 -4 8 7 15 14 15 16 0 2 -7 4 -15 4 -8 0
-15 -7 -15 -16z"/>
<path d="M4710 7273 c-62 -11 -176 -45 -214 -64 -94 -48 -136 -125 -136 -252
0 -89 21 -163 44 -159 14 2 37 -31 40 -60 1 -3 4 -10 9 -14 24 -24 -20 100
-68 194 -18 35 -10 60 9 28 28 -48 71 -87 107 -97 21 -7 39 -16 39 -21 0 -4 6
-8 14 -8 8 0 27 -10 43 -23 40 -33 59 -40 133 -43 36 -1 111 -5 166 -9 105 -8
240 10 309 40 17 7 47 19 69 27 21 7 46 23 56 35 10 14 29 23 44 23 25 0 26 2
26 67 0 241 -160 345 -523 342 -78 -1 -153 -4 -167 -6z"/>
<path d="M7265 6571 c-3 -5 -1 -12 5 -16 5 -3 10 1 10 9 0 18 -6 21 -15 7z"/>
<path d="M4550 6552 c0 -12 61 -67 89 -82 13 -7 37 -16 54 -21 29 -8 28 -7
-13 29 -63 54 -130 92 -130 74z"/>
<path d="M3358 6513 c7 -3 16 -2 19 1 4 3 -2 6 -13 5 -11 0 -14 -3 -6 -6z"/>
<path d="M3390 6500 c0 -5 4 -10 9 -10 5 0 18 -3 28 -6 16 -5 16 -4 -1 10 -23
18 -36 20 -36 6z"/>
<path d="M3543 6473 c15 -2 37 -2 50 0 12 2 0 4 -28 4 -27 0 -38 -2 -22 -4z"/>
<path d="M4990 6430 c0 -5 5 -10 11 -10 5 0 7 5 4 10 -3 6 -8 10 -11 10 -2 0
-4 -4 -4 -10z"/>
<path d="M5095 6409 c-44 -16 -92 -29 -107 -29 -15 0 -30 -5 -34 -12 -5 -8 6
-9 42 -4 143 20 144 20 144 -2 0 -11 5 -24 10 -27 6 -4 8 -10 5 -15 -3 -4 4
-10 14 -13 22 -5 39 22 21 33 -12 7 14 33 43 43 26 10 16 31 -16 35 -15 2 -27
8 -27 13 0 12 -2 12 -95 -22z"/>
<path d="M6180 6430 c0 -5 5 -10 11 -10 5 0 7 5 4 10 -3 6 -8 10 -11 10 -2 0
-4 -4 -4 -10z"/>
<path d="M5100 6345 c-10 -12 -10 -15 3 -15 19 0 31 16 18 24 -5 3 -14 -1 -21
-9z"/>
<path d="M7204 6284 c-3 -10 -19 -46 -34 -79 -32 -71 -62 -143 -85 -204 -9
-25 -34 -74 -55 -110 -20 -37 -41 -86 -45 -110 -4 -24 -13 -59 -21 -76 -19
-47 -134 -120 -134 -86 0 5 6 12 13 14 6 3 -25 6 -70 6 -45 1 -85 6 -88 11 -3
6 -17 10 -30 10 -15 0 -33 12 -48 33 -24 31 -56 118 -58 154 -1 10 -8 -2 -16
-27 -9 -28 -17 -94 -19 -173 -2 -70 -6 -132 -10 -138 -11 -19 10 -28 30 -13
15 10 17 17 9 25 -11 11 -2 64 15 81 4 4 27 1 50 -9 l42 -16 -1 -71 c0 -39 -6
-125 -12 -191 -12 -117 -13 -167 -9 -290 2 -43 5 -56 12 -45 5 8 10 25 10 36
0 12 7 27 15 34 8 7 17 28 21 49 3 20 19 63 34 96 45 93 60 132 60 149 0 16
29 63 57 93 6 7 17 30 23 50 13 41 77 143 98 156 6 4 19 22 28 39 11 21 18 27
24 19 8 -14 40 45 40 74 0 9 15 42 33 73 37 63 70 150 61 163 -2 5 2 22 11 38
8 17 15 43 15 58 0 15 6 40 14 54 17 34 40 128 32 136 -3 3 -8 -3 -12 -13z"/>
<path d="M6612 6008 c3 -7 12 -14 21 -16 12 -2 15 1 11 12 -7 19 -38 22 -32 4z"/>
<path d="M5747 5555 c-8 -8 -18 -11 -22 -7 -5 4 -5 2 -1 -5 8 -14 48 -3 54 15
5 17 -14 15 -31 -3z"/>
<path d="M5920 5492 c0 -5 7 -9 15 -9 8 0 12 4 9 9 -3 4 -9 8 -15 8 -5 0 -9
-4 -9 -8z"/>
<path d="M5850 5470 c0 -5 7 -10 15 -10 8 0 15 -4 15 -10 0 -5 7 -10 15 -10
20 0 19 10 -2 26 -21 16 -43 18 -43 4z"/>
<path d="M6355 5440 c3 -5 8 -10 11 -10 2 0 4 5 4 10 0 6 -5 10 -11 10 -5 0
-7 -4 -4 -10z"/>
<path d="M6255 5430 c3 -5 8 -10 11 -10 2 0 4 5 4 10 0 6 -5 10 -11 10 -5 0
-7 -4 -4 -10z"/>
<path d="M5942 5394 c-10 -11 -8 -15 8 -24 17 -9 20 -8 20 9 0 26 -12 32 -28
15z"/>
<path d="M6240 5364 c0 -8 5 -12 10 -9 6 4 8 11 5 16 -9 14 -15 11 -15 -7z"/>
<path d="M5968 5346 c-15 -11 -16 -16 -4 -31 20 -27 49 -8 33 22 -10 18 -15
20 -29 9z"/>
<path d="M6326 5346 c7 -17 44 -22 44 -6 0 6 -4 10 -9 10 -5 0 -17 3 -25 6
-12 5 -15 2 -10 -10z"/>
<path d="M6330 5300 c0 -5 5 -10 10 -10 6 0 10 5 10 10 0 6 -4 10 -10 10 -5 0
-10 -4 -10 -10z"/>
<path d="M6370 5250 c0 -5 5 -10 10 -10 6 0 10 5 10 10 0 6 -4 10 -10 10 -5 0
-10 -4 -10 -10z"/>
<path d="M3318 4575 c-3 -14 -1 -25 3 -25 5 0 9 11 9 25 0 14 -2 25 -4 25 -2
0 -6 -11 -8 -25z"/>
<path d="M3640 4190 c0 -5 5 -10 11 -10 5 0 7 5 4 10 -3 6 -8 10 -11 10 -2 0
-4 -4 -4 -10z"/>
<path d="M6080 3999 c0 -5 5 -7 10 -4 6 3 10 8 10 11 0 2 -4 4 -10 4 -5 0 -10
-5 -10 -11z"/>
<path d="M6021 3951 c-19 -12 -4 -31 25 -31 19 0 25 5 22 17 -4 20 -27 27 -47
14z"/>
<path d="M5929 3483 c-13 -16 -12 -17 4 -4 16 13 21 21 13 21 -2 0 -10 -8 -17
-17z"/>
<path d="M5866 3285 c4 -8 7 -15 9 -15 2 0 5 7 9 15 3 9 0 15 -9 15 -9 0 -12
-6 -9 -15z"/>
<path d="M1636 3195 c-49 -17 -68 -35 -39 -35 12 0 25 5 28 10 3 6 14 10 23
10 9 0 26 7 36 15 25 19 5 19 -48 0z"/>
<path d="M5748 1093 c6 -2 18 -2 25 0 6 3 1 5 -13 5 -14 0 -19 -2 -12 -5z"/>
<path d="M3920 806 c-19 -8 -61 -23 -93 -34 -115 -42 -158 -86 -179 -184 -11
-51 -10 -58 11 -91 33 -54 72 -77 149 -88 173 -24 207 -30 219 -40 7 -6 11
-15 8 -19 -5 -8 69 -4 92 4 7 3 13 1 13 -4 0 -6 6 -10 13 -10 6 0 25 -7 40
-15 32 -16 62 -5 70 27 3 10 9 18 14 17 4 -2 30 1 57 6 32 5 123 1 258 -11
131 -11 211 -14 217 -8 5 5 12 30 16 55 l7 46 -139 7 c-76 3 -169 10 -208 16
-38 5 -189 12 -335 15 -146 4 -279 11 -296 16 -17 5 -42 21 -54 34 -35 37 -19
73 43 99 l47 20 23 -22 c13 -12 30 -22 38 -22 21 -1 52 -27 44 -39 -3 -6 -1
-11 4 -11 6 0 11 6 11 13 0 6 5 4 11 -5 6 -12 22 -18 44 -18 28 0 33 -3 28
-17 -5 -12 -3 -14 8 -7 8 5 30 9 49 11 20 1 40 9 48 20 7 10 17 17 22 16 24
-7 60 18 60 39 -1 38 -35 101 -73 135 -65 57 -204 80 -287 49z"/>
<path d="M5096 541 c-10 -51 -16 -94 -14 -97 7 -6 41 162 36 177 -2 7 -12 -29
-22 -80z"/>
<path d="M3930 570 c0 -5 4 -10 9 -10 6 0 13 5 16 10 3 6 -1 10 -9 10 -9 0
-16 -4 -16 -10z"/>
<path d="M4000 549 c0 -5 5 -7 10 -4 6 3 10 8 10 11 0 2 -4 4 -10 4 -5 0 -10
-5 -10 -11z"/>
<path d="M5002 180 c-7 -33 -15 -69 -18 -78 -5 -14 -4 -14 4 -2 13 20 35 116
30 131 -2 6 -9 -17 -16 -51z"/>
<path d="M3808 93 c7 -3 16 -2 19 1 4 3 -2 6 -13 5 -11 0 -14 -3 -6 -6z"/>
</g>
</svg>
